<svg xmlns="http://www.w3.org/2000/svg" width="16" height="18" viewBox="0 0 16 18" fill="none">
<rect x="0.5" y="4.16272" width="15" height="12.5385" rx="1.96154" stroke="#E7426D"/>
<mask id="path-2-inside-1_308_4566" fill="white">
<path d="M4.30771 4.49104C4.30771 4.00616 4.40321 3.52603 4.58877 3.07806C4.77432 2.63008 5.0463 2.22305 5.38916 1.88018C5.73202 1.53732 6.13906 1.26535 6.58703 1.07979C7.035 0.894237 7.51513 0.798732 8.00001 0.798732C8.48489 0.798732 8.96503 0.894237 9.413 1.07979C9.86097 1.26535 10.268 1.53732 10.6109 1.88019C10.9537 2.22305 11.2257 2.63008 11.4113 3.07806C11.5968 3.52603 11.6923 4.00616 11.6923 4.49104L8.00001 4.49104L4.30771 4.49104Z"/>
</mask>
<path d="M4.30771 4.49104C4.30771 4.00616 4.40321 3.52603 4.58877 3.07806C4.77432 2.63008 5.0463 2.22305 5.38916 1.88018C5.73202 1.53732 6.13906 1.26535 6.58703 1.07979C7.035 0.894237 7.51513 0.798732 8.00001 0.798732C8.48489 0.798732 8.96503 0.894237 9.413 1.07979C9.86097 1.26535 10.268 1.53732 10.6109 1.88019C10.9537 2.22305 11.2257 2.63008 11.4113 3.07806C11.5968 3.52603 11.6923 4.00616 11.6923 4.49104L8.00001 4.49104L4.30771 4.49104Z" stroke="#E7426D" stroke-width="2" mask="url(#path-2-inside-1_308_4566)"/>
</svg>