<svg width="18" height="19" viewBox="0 0 18 19" fill="none" xmlns="http://www.w3.org/2000/svg">
<g clip-path="url(#clip0_29_2443)">
<path d="M2.50775 5.44409H4.00775H16.0078" stroke="#E7426D" stroke-width="1.5" stroke-linecap="round" stroke-linejoin="round"/>
<path d="M14.5078 5.44409V15.9441C14.5078 16.3419 14.3497 16.7234 14.0684 17.0048C13.7871 17.2861 13.4056 17.4441 13.0078 17.4441H5.50775C5.10993 17.4441 4.7284 17.2861 4.44709 17.0048C4.16579 16.7234 4.00775 16.3419 4.00775 15.9441V5.44409M6.25775 5.44409V3.94409C6.25775 3.54627 6.41579 3.16474 6.69709 2.88343C6.9784 2.60213 7.35993 2.44409 7.75775 2.44409H10.7578C11.1556 2.44409 11.5371 2.60213 11.8184 2.88343C12.0997 3.16474 12.2578 3.54627 12.2578 3.94409V5.44409" stroke="#E7426D" stroke-width="1.5" stroke-linecap="round" stroke-linejoin="round"/>
</g>
<defs>
<clipPath id="clip0_29_2443">
<rect width="18" height="18" fill="white" transform="translate(0 0.550232)"/>
</clipPath>
</defs>
</svg>
