<svg xmlns="http://www.w3.org/2000/svg" width="24" height="24" viewBox="0 0 24 24" fill="none">
  <path d="M14.2008 20V16.8C14.3121 15.7978 14.0247 14.7921 13.4008 14C15.8008 14 18.2008 12.4 18.2008 9.6C18.2648 8.6 17.9848 7.616 17.4008 6.8C17.6248 5.88 17.6248 4.92 17.4008 4C17.4008 4 16.6008 4 15.0008 5.2C12.8888 4.8 10.7128 4.8 8.60078 5.2C7.00078 4 6.20078 4 6.20078 4C5.96078 4.92 5.96078 5.88 6.20078 6.8C5.61828 7.61271 5.33556 8.60223 5.40078 9.6C5.40078 12.4 7.80078 14 10.2008 14C9.88878 14.392 9.65678 14.84 9.52078 15.32C9.38478 15.8 9.34478 16.304 9.40078 16.8M9.40078 16.8V20M9.40078 16.8C5.79278 18.4 5.40078 15.2 3.80078 15.2" stroke="#e7426d" stroke-linecap="round" stroke-width="1.5" stroke-linejoin="round"/>
</svg>