<svg width="64" height="64" viewBox="0 0 64 64" fill="none" xmlns="http://www.w3.org/2000/svg">
<rect width="64" height="64" rx="32" fill="white"/>
<path d="M36.6896 9.22939C36.8193 9.22615 36.944 9.23384 37.0627 9.29119C37.271 9.39177 37.3468 9.60309 37.412 9.80798C37.5987 9.71531 37.7707 9.65709 37.9806 9.71257C38.1174 9.74877 38.2308 9.84226 38.2995 9.96514C38.4282 10.1952 38.3929 10.4261 38.3296 10.6669C38.5347 10.8091 38.7325 10.9617 38.9223 11.1238C39.6831 11.7737 40.4208 12.7233 40.4909 13.761C40.5197 14.1877 40.4066 14.5099 40.1257 14.8306C40.1981 14.9513 40.2709 15.088 40.2889 15.2292C40.3052 15.3579 40.2882 15.484 40.2011 15.585C40.0629 15.7451 39.8804 15.7566 39.6851 15.7775C39.6107 15.904 39.5375 16.0426 39.4363 16.1492C39.0111 16.597 38.3021 16.6053 37.7282 16.6126C37.9639 17.0653 38.1979 17.5107 38.2867 18.0194C38.3949 18.6388 38.2761 19.1971 37.9165 19.7115C37.9978 19.8515 38.0328 20.0027 38.0151 20.165C37.9909 20.3859 37.8688 20.5211 37.7067 20.6581C37.5758 20.6819 37.4397 20.692 37.3074 20.7079C37.6976 21.3326 37.9039 21.7256 37.9236 22.4757C37.9824 22.4961 38.0424 22.5166 38.0984 22.5438C38.2942 22.6387 38.4721 22.8428 38.5312 23.0528C38.5754 23.21 38.5574 23.3816 38.4716 23.5216C38.3494 23.7207 38.1521 23.8058 37.9342 23.857C37.9091 24.5497 37.6994 25.0278 37.2783 25.5706C37.6026 25.4019 37.9489 25.2773 38.2715 25.1026C38.612 24.9183 38.9278 24.6848 39.2612 24.4868C39.0036 24.9162 38.7051 25.3192 38.4477 25.7487C38.0628 26.3908 37.739 27.0804 37.4273 27.7602C37.1779 28.2986 36.9386 28.8415 36.7094 29.3888C36.5654 29.7396 36.4471 30.1411 36.2552 30.465C36.0994 30.7283 35.9137 30.7492 35.6361 30.6613C35.314 30.5593 35.0026 30.4222 34.6703 30.353C33.0549 30.0168 30.9342 30.2209 29.3386 30.6014C28.9253 30.6938 28.5254 30.822 28.1259 30.9609C27.974 30.4493 27.6932 29.9701 27.4458 29.4997C26.6475 27.9819 25.7269 26.5478 24.7969 25.1085C25.2708 25.4978 26.1108 26.1359 26.6465 26.3792C26.3047 25.8752 26.0913 25.5224 26.0443 24.9017C25.8055 24.8356 25.6035 24.7385 25.4594 24.5277C25.3527 24.3715 25.3048 24.1701 25.3441 23.9836C25.3989 23.724 25.5751 23.5708 25.7895 23.4354C25.6768 22.6807 25.8511 21.9577 26.2759 21.3259C26.9762 20.2847 28.2658 19.5968 29.4751 19.3613C29.0813 18.9899 28.7072 18.543 28.4704 18.0533C28.1415 17.3732 28.1023 16.7339 28.347 16.0235C28.3014 15.9717 28.2583 15.9177 28.218 15.8617C28.1135 15.7183 28.0168 15.5068 28.0536 15.3253C28.1355 14.9211 28.5516 14.96 28.7548 14.8246C28.8941 14.7318 28.9829 14.4522 29.0888 14.3151C29.223 14.1413 29.4304 13.9756 29.6105 13.8498C30.4094 13.292 31.3232 13.2065 32.2613 13.3687C32.1151 12.8708 32.0632 12.4757 32.1088 11.9574C32.0086 11.8402 31.9464 11.7413 31.9258 11.5849C31.9066 11.4386 31.9228 11.291 32.0192 11.1733C32.1526 11.0105 32.3353 10.975 32.5322 10.9501C32.7015 10.4873 33.0487 10.1267 33.4791 9.89412C34.3066 9.44686 35.2171 9.47718 36.0941 9.73295C36.1205 9.67186 36.1475 9.61067 36.1829 9.5542C36.3077 9.35496 36.4666 9.28003 36.6896 9.22939Z" fill="#7A021F"/>
<path d="M26.5894 24.6882C29.1765 23.9696 31.8448 23.7006 34.5241 23.6866C35.5595 23.6811 36.583 23.7017 37.6124 23.825C37.6102 23.9551 37.6051 24.0817 37.591 24.2113C37.5432 24.521 37.4408 24.7756 37.2966 25.0528C37.0207 25.4759 36.6467 25.7852 36.1424 25.8887C35.8279 25.9533 35.5448 25.912 35.2745 25.7341C35.036 25.5772 34.8455 25.3568 34.6625 25.1406C34.4413 25.5557 34.2371 25.8403 33.7613 25.9813C33.1387 26.1659 32.4294 25.9884 31.8747 25.683C31.656 25.5626 31.4713 25.3969 31.2589 25.2734C30.9927 25.7352 30.6963 26.1186 30.1547 26.2653C29.7431 26.3768 29.3287 26.2784 28.9718 26.0596C28.7626 25.9313 28.6385 25.7174 28.4434 25.5807C28.1606 25.8353 27.5686 26.4111 27.1642 26.4188C27.1358 26.4194 27.1294 26.4151 27.106 26.4067C26.8393 26.2569 26.617 25.8427 26.4943 25.5712C26.4088 25.382 26.262 25.0183 26.3705 24.8216C26.4195 24.7327 26.5005 24.7226 26.5894 24.6882Z" fill="#F1AEBC"/>
<path d="M27.106 26.4067C26.8393 26.257 26.617 25.8428 26.4943 25.5712C26.4088 25.382 26.262 25.0183 26.3705 24.8217C26.4195 24.7328 26.5005 24.7226 26.5894 24.6882C26.5506 25.2739 26.7099 25.6166 26.98 26.1192C27.028 26.2086 27.0949 26.3051 27.106 26.4067Z" fill="#FEFEFE"/>
<path d="M37.3697 24.2247C37.4138 24.1674 37.4244 24.166 37.4936 24.1421L37.5638 24.1612L37.5908 24.2113C37.543 24.521 37.4406 24.7757 37.2964 25.0528L37.1602 25.063C37.229 24.851 37.4344 24.4329 37.3697 24.2247Z" fill="#F1B9CA"/>
<path d="M37.3705 24.2246C37.4353 24.4329 37.2298 24.8509 37.161 25.0629C37.1071 25.0523 37.0536 25.0394 37 25.0274C37.119 24.7688 37.2133 24.4598 37.3705 24.2246Z" fill="#F7E4EF"/>
<path d="M28.6944 17.8673C28.5042 17.4607 28.4166 16.9088 28.5008 16.4648C28.5196 16.3656 28.5632 16.2253 28.6564 16.1712C28.6952 16.1486 28.7673 16.1807 28.8099 16.1912C31.3774 17.1165 34.5253 18.6861 36.707 20.3177L37.03 20.5679C36.9043 20.6597 36.7802 20.7564 36.6477 20.8383C36.5316 20.9568 36.2804 21.0586 36.1276 21.1217C34.9247 21.6175 33.5718 21.3273 32.4115 20.8499C31.0858 20.3045 29.2629 19.2353 28.6944 17.8673Z" fill="#B3DBD3"/>
<path d="M28.6944 17.8673C28.5042 17.4607 28.4166 16.9088 28.5008 16.4648C28.5196 16.3656 28.5632 16.2253 28.6564 16.1712C28.6952 16.1486 28.7673 16.1807 28.8099 16.1912C28.7169 16.4437 28.6691 16.6855 28.6571 16.9548C28.6484 17.152 28.7558 17.7458 28.6944 17.8673Z" fill="#FEFEFE"/>
<path d="M36.7081 20.3176L37.0312 20.5678C36.9054 20.6596 36.7813 20.7564 36.6488 20.8382C36.6445 20.83 36.6393 20.8221 36.6359 20.8134C36.5706 20.6488 36.638 20.4674 36.7081 20.3176Z" fill="#BCEEE3"/>
<path d="M26.0923 23.3398C26.0659 23.2933 26.052 23.2583 26.044 23.2047C25.9523 22.5844 26.1763 21.9555 26.5338 21.455C27.2906 20.3956 28.4785 19.824 29.7375 19.6084L30.0559 19.8638C31.6447 20.9388 33.6343 21.963 35.6115 21.5817C36.0724 21.4928 36.5971 21.2513 36.9677 20.9671C37.0085 20.9358 36.9932 20.9461 37.0515 20.9363C37.0969 20.9869 37.1247 21.019 37.1479 21.0845C37.4212 21.4361 37.6688 21.9076 37.6199 22.3663C37.6185 22.3804 37.6162 22.3945 37.6143 22.4085L37.4343 22.3903C37.2301 22.3828 37.0262 22.3712 36.8225 22.3555C36.1689 22.3306 35.5137 22.2924 34.8596 22.2892C33.394 22.282 31.946 22.3766 30.4885 22.5269C29.4252 22.6366 28.3453 22.7697 27.302 23.0054C26.894 23.0977 26.4933 23.2214 26.0923 23.3398Z" fill="#F1AEBC"/>
<path d="M26.0923 23.3398C26.0659 23.2933 26.052 23.2583 26.044 23.2047C25.9523 22.5844 26.1763 21.9555 26.5338 21.455C27.2906 20.3956 28.4785 19.824 29.7375 19.6084L30.0559 19.8638C29.6429 19.9723 29.2258 20.0726 28.8268 20.2264C27.9484 20.5652 27.0137 21.1991 26.5328 22.0264C26.3739 22.2996 26.2564 22.5807 26.1892 22.8896C26.1566 23.0388 26.1396 23.1947 26.0923 23.3398Z" fill="#FEFEFE"/>
<path d="M37.1498 21.0845C37.4232 21.4361 37.6707 21.9076 37.6219 22.3663C37.6204 22.3804 37.6181 22.3945 37.6163 22.4085L37.4362 22.3903C37.2321 22.3828 37.0281 22.3712 36.8245 22.3555C36.8194 22.1835 36.8888 22.046 36.8951 21.8835C36.8975 21.8207 36.7928 21.7633 36.7548 21.7123C36.7085 21.6503 36.7143 21.6357 36.731 21.5671C36.8041 21.489 36.9165 21.4204 37.0218 21.397C37.1197 21.3753 37.2123 21.4315 37.2917 21.4803C37.2911 21.3515 37.1764 21.2196 37.1498 21.0845Z" fill="#F1B9CA"/>
<path d="M37.1484 21.0845C37.4218 21.4361 37.6693 21.9076 37.6205 22.3663C37.619 22.3804 37.6167 22.3945 37.6149 22.4085L37.4348 22.3903C37.4363 22.32 37.4468 22.2512 37.4563 22.1817C37.4714 21.9277 37.3625 21.7183 37.2903 21.4803C37.2897 21.3515 37.175 21.2196 37.1484 21.0845Z" fill="#EDA3B4"/>
<path d="M37.459 22.1819C37.4966 22.1868 37.5564 22.1802 37.5794 22.2138C37.6152 22.2659 37.6122 22.3471 37.6176 22.4088L37.4375 22.3905C37.439 22.3202 37.4495 22.2514 37.459 22.1819Z" fill="#F1AEBC"/>
<path d="M28.7919 20.6529C28.9344 20.6399 29.1301 20.6103 29.2621 20.6734C29.3351 20.7084 29.3676 20.7413 29.3935 20.8184C29.4222 20.9037 29.3951 21.0057 29.3524 21.0812C29.0518 21.613 28.0608 22.0034 27.5097 22.1667C27.3973 22.1862 27.2829 22.2091 27.1692 22.2177C27.0519 22.2266 26.9628 22.215 26.8744 22.1346C26.863 22.04 26.881 21.9854 26.9339 21.9056C27.3188 21.3255 28.1194 20.8102 28.7919 20.6529Z" fill="#FEFEFE"/>
<path d="M29.2255 14.9906L29.1109 14.9405C29.0847 14.8814 29.0862 14.8903 29.0979 14.8333C29.1601 14.5305 29.594 14.1936 29.8448 14.0277C30.6336 13.5062 31.5113 13.4839 32.4116 13.6723L32.651 14.0672C32.8638 14.3132 33.0576 14.5774 33.2957 14.8005C34.4133 15.8472 35.8895 16.3543 37.3674 16.6172C37.8002 17.288 38.1711 18.0272 37.9906 18.8495C37.9399 19.0871 37.8349 19.3096 37.6838 19.4998C35.5441 17.8559 32.683 16.3428 30.1777 15.351C29.9315 15.2535 29.4658 15.0155 29.2255 14.9906Z" fill="#B3DBD3"/>
<path d="M29.2255 14.9906L29.1109 14.9405C29.0847 14.8814 29.0862 14.8903 29.0979 14.8333C29.1601 14.5305 29.594 14.1936 29.8448 14.0277C30.6336 13.5062 31.5113 13.4839 32.4116 13.6723L32.651 14.0672L32.5966 14.0636C32.3328 14.0438 32.0689 13.9646 31.8054 13.9306C31.1465 13.8453 30.2691 13.9221 29.7428 14.3756C29.6072 14.4925 29.3171 14.9506 29.2255 14.9906Z" fill="#FEFEFE"/>
<path d="M31.0295 14.0935C31.4507 14.0294 31.9819 14.1046 32.3716 14.2748C32.7383 14.435 32.9635 14.6554 33.1076 15.0253C32.8175 15.0569 32.5312 15.0721 32.2396 15.0592C31.7379 15.0386 30.7171 14.9688 30.2778 14.7463C30.1942 14.7039 30.1424 14.6617 30.1133 14.5692C30.1205 14.5135 30.1278 14.4851 30.1628 14.439C30.3336 14.2138 30.7666 14.1343 31.0295 14.0935Z" fill="#FEFEFE"/>
<path d="M32.8945 13.9964C32.8834 13.9815 32.872 13.9668 32.8613 13.9518C32.6057 13.5933 32.2335 12.5614 32.3443 12.1295C32.3622 12.0599 32.3859 12.0401 32.444 12.002C32.6101 12.0145 32.7743 12.0841 32.9318 12.1362C34.7961 12.8216 37.8331 14.4083 39.3914 15.6311C39.3827 15.7695 39.2983 15.89 39.1962 15.98C38.9141 16.2288 38.4176 16.3124 38.0511 16.3132C37.652 16.3848 37.1798 16.3185 36.7862 16.2354C35.4822 15.9599 33.6281 15.1275 32.8945 13.9964Z" fill="#FBECB5"/>
<path d="M32.8945 13.9964C32.8834 13.9815 32.872 13.9668 32.8613 13.9518C32.6057 13.5933 32.2335 12.5614 32.3443 12.1295C32.3622 12.0599 32.3859 12.0401 32.444 12.002C32.6101 12.0145 32.7743 12.0841 32.9318 12.1362C32.9024 12.1926 32.8924 12.2312 32.8262 12.2525C32.7489 12.2773 32.6867 12.2392 32.6183 12.3016C32.543 12.5825 32.6558 13.1353 32.7516 13.4039C32.8037 13.5499 32.8989 13.7148 32.9221 13.8675C32.9308 13.9247 32.9179 13.9463 32.8945 13.9964Z" fill="#FBFEEF"/>
<path d="M39.3916 15.6311C39.3828 15.7695 39.2985 15.89 39.1963 15.9801C38.9143 16.2289 38.4178 16.3125 38.0513 16.3132C37.9683 16.3146 37.8897 16.3187 37.8086 16.2978C37.8182 16.2822 37.826 16.2654 37.8372 16.251C37.8713 16.2076 37.9682 16.1603 38.0161 16.1297C38.4392 15.8597 38.5106 16.0518 38.8339 15.92C39.0594 15.8281 39.1182 15.6448 39.3916 15.6311Z" fill="#FBFEEF"/>
<path d="M32.9965 11.0547C32.9131 11.0277 32.8415 11.0193 32.7812 10.9544C32.7821 10.9245 32.7803 10.9211 32.7924 10.8886C32.8791 10.6549 33.3309 10.2965 33.5512 10.1719C34.3744 9.70631 35.2751 9.76504 36.1528 10.0143C36.195 10.2975 36.308 10.5651 36.4094 10.8311C36.4837 11.0795 36.5537 11.3301 36.6429 11.5737C37.1589 11.3592 37.6805 11.1472 38.1569 10.8524C38.292 10.9512 38.489 11.063 38.5993 11.1857C39.0508 11.5182 39.4776 11.9698 39.7531 12.4606C40.0278 12.9698 40.354 13.6339 40.1869 14.229C40.1364 14.4089 40.0424 14.5401 39.9122 14.6708L39.67 14.4792C39.2647 14.129 38.7909 13.8388 38.3373 13.5567C36.6162 12.4867 34.8779 11.7726 32.9965 11.0547Z" fill="#FBECB5"/>
<path d="M32.9965 11.0547C32.9131 11.0277 32.8415 11.0193 32.7812 10.9544C32.7821 10.9245 32.7803 10.9211 32.7924 10.8886C32.8791 10.6549 33.3309 10.2965 33.5512 10.1719C34.3744 9.70631 35.2751 9.76504 36.1528 10.0143C36.195 10.2975 36.308 10.5651 36.4094 10.8311C36.1859 10.88 35.9822 10.9791 35.7534 11.0014C35.4497 11.031 34.4036 10.8784 34.1519 10.7077C34.1063 10.6768 34.1055 10.6648 34.0813 10.6187C34.115 10.5348 34.1549 10.5028 34.2372 10.4652C34.5486 10.3229 34.9464 10.3041 35.2823 10.3371C35.4153 10.3502 35.555 10.3656 35.6838 10.4019C35.7808 10.4292 35.8819 10.4821 35.9815 10.4939C36.0319 10.4998 36.0446 10.5008 36.0856 10.4699C36.0837 10.393 36.0564 10.3646 36.0124 10.3052C35.4998 10.0202 34.6783 10.054 34.1309 10.2089C33.7927 10.3047 33.3017 10.5278 33.1264 10.8459C33.1096 10.8766 33.0937 10.9078 33.0774 10.9388C33.0563 10.9788 33.0315 11.0249 32.9965 11.0547Z" fill="#FEFEFE"/>
<path d="M39.6406 12.5775C39.674 12.5234 39.7036 12.5016 39.7518 12.4607C40.0266 12.9699 40.3527 13.634 40.1857 14.2291C40.1351 14.409 40.0411 14.5402 39.9109 14.6708L39.6687 14.4793C39.7087 14.4435 39.7463 14.4099 39.7914 14.3806C39.891 14.316 39.9295 14.2784 39.9648 14.1612C40.1236 13.6345 39.8803 13.0374 39.6406 12.5775Z" fill="#FEFEFE"/>
<path d="M38.5977 11.1858C39.0492 11.5183 39.4761 11.9699 39.7515 12.4608C39.7034 12.5016 39.6737 12.5235 39.6404 12.5775C39.548 12.5193 39.4052 12.2276 39.336 12.1218C39.1878 11.8956 38.6649 11.4288 38.6298 11.3018C38.6263 11.2887 38.624 11.2754 38.621 11.2622L38.5859 11.2328L38.5977 11.1858Z" fill="#F8F9CD"/>
<path d="M38.4071 11.5036L38.3438 11.4111C38.6543 11.5142 39.3321 12.4074 39.4844 12.7079C39.7245 13.1815 39.792 13.6224 39.7561 14.1471C39.7345 14.0298 39.7154 13.913 39.7005 13.7946C39.5446 13.674 38.4476 11.739 38.4071 11.5036Z" fill="#CFBD8B"/>
<path d="M38.4071 11.5036L38.3438 11.4111C38.6543 11.5142 39.3321 12.4074 39.4844 12.7079C39.7245 13.1815 39.792 13.6224 39.7561 14.1471C39.7345 14.0298 39.7154 13.913 39.7005 13.7946C39.6794 12.9357 38.9871 12.0814 38.4071 11.5036Z" fill="#7A021F"/>
<path d="M34.7165 25.6235C35.0117 25.9308 35.3351 26.09 35.717 26.2659C35.1396 27.479 34.7587 28.7087 34.6248 30.0488C34.1964 29.9758 33.7324 29.9898 33.3158 29.8866C33.268 29.8828 33.2181 29.8861 33.17 29.8866C32.831 29.9593 32.2518 29.8978 31.8687 29.9233C31.7456 28.5288 31.5404 27.1381 31.4023 25.7439C31.9178 26.0652 32.4466 26.3249 33.0657 26.3375C33.2407 26.3202 33.4016 26.3423 33.5745 26.3379C34.0641 26.2013 34.4357 26.0866 34.7165 25.6235Z" fill="#FBECB5"/>
<path d="M31.4023 25.7439C31.9178 26.0651 32.4466 26.3249 33.0657 26.3375C33.2407 26.3201 33.4016 26.3423 33.5745 26.3379C33.3284 27.4827 33.3225 28.7201 33.3158 29.8865C33.268 29.8828 33.2181 29.8861 33.17 29.8865C32.831 29.9592 32.2518 29.8978 31.8687 29.9232C31.7456 28.5288 31.5404 27.138 31.4023 25.7439Z" fill="#FBECB5"/>
<path d="M33.0664 26.3373C33.2414 26.32 33.4023 26.3421 33.5752 26.3377C33.3291 27.4825 33.3233 28.7199 33.3166 29.8863C33.2687 29.8826 33.2188 29.8859 33.1708 29.8863C33.1539 28.7071 33.21 27.5213 33.4122 26.3579C33.2959 26.3573 33.1821 26.3484 33.0664 26.3373Z" fill="#7A021F"/>
<path d="M34.3521 22.5844C35.0648 22.5713 37.4878 22.5871 38.0058 22.8131C38.1058 22.8567 38.1759 22.9482 38.2121 23.0493C38.2494 23.1536 38.2644 23.296 38.2001 23.3929C38.092 23.5558 37.8843 23.5611 37.7105 23.54C34.9176 23.2012 31.7005 23.3567 28.9322 23.8372C27.9309 24.0056 26.9448 24.2546 25.9835 24.5816C25.895 24.5398 25.7957 24.4935 25.7235 24.4269C25.6467 24.356 25.592 24.2681 25.5938 24.1605C25.5958 24.044 25.6538 23.9441 25.7352 23.8644C26.3903 23.2231 30.7469 22.7845 31.7548 22.7037C32.6186 22.628 33.4851 22.5882 34.3521 22.5844Z" fill="#C1BBB4"/>
<path d="M26.2481 26.567C26.6621 26.7399 27.0065 26.8374 27.4426 26.6591C27.8122 26.5081 28.1316 26.2607 28.4437 26.0168C28.5792 26.1154 28.7125 26.2167 28.8438 26.3207C29.2422 27.5972 29.6219 28.8795 29.9828 30.1672C29.5507 30.2684 28.8387 30.378 28.4565 30.5591C28.4117 30.5735 28.3667 30.5876 28.3217 30.6012C28.2135 30.5338 27.926 29.855 27.8469 29.7001C27.3377 28.7225 26.792 27.7643 26.2109 26.8277L26.3082 26.7648L26.2481 26.567Z" fill="#FBECB5"/>
<path d="M26.3082 26.7649C26.98 27.5514 28.0948 29.5776 28.4565 30.5592C28.4117 30.5736 28.3667 30.5877 28.3217 30.6013C28.2135 30.5339 27.926 29.8551 27.8469 29.7002C27.3377 28.7226 26.792 27.7644 26.2109 26.8278L26.3082 26.7649Z" fill="#FEFEFE"/>
<path d="M28.5994 15.1265C28.6757 15.1267 28.7524 15.137 28.8271 15.1515C29.3502 15.2531 29.9116 15.5341 30.4008 15.7421C32.5154 16.6412 34.5135 17.6882 36.4359 18.9473C36.7753 19.1697 37.4512 19.5759 37.6563 19.9078C37.7128 19.9991 37.7303 20.0915 37.6992 20.1959C37.6634 20.3156 37.5647 20.3835 37.4636 20.4443C37.3909 20.4304 37.3253 20.3983 37.2637 20.3578C37.0117 20.1924 36.773 19.9996 36.5269 19.8247C36.0539 19.4908 35.5693 19.1737 35.0741 18.8737C34.2827 18.4047 33.4577 17.9509 32.6329 17.5446C31.9967 17.2313 31.3464 16.9471 30.7062 16.6421C30.2914 16.4445 29.8466 16.2734 29.4152 16.1166C29.179 16.0307 28.9279 15.9584 28.7006 15.8518C28.5996 15.8044 28.4963 15.7417 28.4271 15.6524C28.3732 15.5828 28.3387 15.498 28.3561 15.4089C28.3837 15.2677 28.4891 15.2026 28.5994 15.1265Z" fill="#B3DBD3"/>
<path d="M38.3434 25.3716L38.3614 25.4007C37.6982 26.3533 37.0001 27.9717 36.5437 29.0455C36.385 29.4189 36.2488 29.8642 36.0639 30.2182C36.0344 30.2747 35.9915 30.3336 35.9327 30.3615C35.798 30.4254 35.1287 30.1607 34.9464 30.1145C34.8805 30.0968 34.8623 30.0966 34.8165 30.0475C34.7688 29.8089 34.8408 29.5343 34.8844 29.2974C35.0747 28.2644 35.3906 27.3055 35.8398 26.3563C36.0386 26.4314 36.2547 26.4948 36.4675 26.5084C37.2948 26.5612 37.7929 25.8649 38.3434 25.3716Z" fill="#FBECB5"/>
<path d="M31.1959 25.8633C31.2691 26.0259 31.2855 26.6949 31.3101 26.9101L31.6644 29.9276C31.1749 29.9713 30.6874 30.0353 30.2032 30.1194C30.1604 29.914 30.0981 29.7144 30.0376 29.5138C29.7322 28.4884 29.4501 27.4517 29.0859 26.4453C29.31 26.5394 29.5465 26.6044 29.791 26.605C30.39 26.6066 30.7981 26.266 31.1959 25.8633Z" fill="#FBECB5"/>
<path d="M32.4948 11.7272C32.4292 11.7212 32.3113 11.7325 32.2593 11.6943C32.206 11.6552 32.168 11.5956 32.168 11.5275C32.1679 11.4301 32.2467 11.3466 32.3211 11.2928C32.4632 11.1902 32.5968 11.2267 32.7552 11.2553C34.9015 11.8765 38.0368 13.4249 39.7447 14.8481C39.8936 14.9797 40.0142 15.0904 40.023 15.3062C40.0255 15.3671 40.0083 15.4073 39.9763 15.4574C39.8998 15.5133 39.8112 15.5329 39.7172 15.5156C39.7084 15.5139 39.6999 15.5107 39.6913 15.5082C39.2906 15.166 38.7762 14.878 38.3266 14.5991C37.1817 13.8735 35.9911 13.2226 34.7623 12.6505C34.2237 12.3974 33.6646 12.1888 33.1273 11.9349L32.4948 11.7272Z" fill="#FBECB5"/>
<path d="M32.4948 11.7272C32.4292 11.7212 32.3113 11.7325 32.2593 11.6943C32.206 11.6552 32.168 11.5956 32.168 11.5275C32.1679 11.4301 32.2467 11.3466 32.3211 11.2928C32.4632 11.1902 32.5968 11.2267 32.7552 11.2553L32.675 11.3948C32.686 11.4007 32.6967 11.407 32.7078 11.4126C32.8125 11.4646 32.9331 11.4011 33.0409 11.4538L33.0482 11.4909L32.8874 11.5458L32.8699 11.5858C32.9674 11.6871 33.1189 11.7882 33.1273 11.9349L32.4948 11.7272Z" fill="#FEFEFE"/>
<path d="M32.4948 11.7272C32.4292 11.7212 32.3113 11.7325 32.2593 11.6943C32.206 11.6552 32.168 11.5956 32.168 11.5275C32.1679 11.4301 32.2467 11.3466 32.3211 11.2928C32.4632 11.1902 32.5968 11.2267 32.7552 11.2553L32.675 11.3948C32.6192 11.3423 32.5683 11.2778 32.4889 11.2674C32.4396 11.3186 32.4388 11.3495 32.4379 11.4179C32.4364 11.5277 32.4545 11.6256 32.4948 11.7272Z" fill="#FBFEEF"/>
<path d="M39.6915 15.5083C39.6977 15.2263 39.5693 15.1402 39.5566 14.9332C39.5533 14.8781 39.5495 14.9005 39.5895 14.8536L39.7449 14.8481C39.8938 14.9798 40.0144 15.0905 40.0232 15.3063C40.0257 15.3672 40.0084 15.4074 39.9765 15.4574C39.9 15.5134 39.8114 15.5329 39.7174 15.5156C39.7086 15.514 39.7001 15.5107 39.6915 15.5083Z" fill="#FEFEFE"/>
<path d="M36.2854 9.8289C36.3253 9.70959 36.3804 9.58077 36.4798 9.49915C36.5762 9.41993 36.7021 9.37445 36.8269 9.39637C36.9871 9.42449 37.0997 9.52793 37.1876 9.65817C37.255 9.80319 37.1947 10.0179 37.2605 10.1154L37.3343 10.0935C37.4757 9.96876 37.6295 9.84291 37.8307 9.85637C37.9261 9.86274 38.0399 9.91377 38.0986 9.9915C38.1296 10.0326 38.1545 10.0798 38.1792 10.1249C38.2146 10.2413 38.2319 10.366 38.1906 10.4837C38.0366 10.9226 37.1264 11.216 36.7143 11.4031C36.594 10.8806 36.2757 10.3706 36.2854 9.8289Z" fill="#F1AEBC"/>
<path d="M36.2852 9.8289C36.325 9.70959 36.3802 9.58077 36.4796 9.49915C36.576 9.41993 36.7019 9.37445 36.8267 9.39637C36.9869 9.42449 37.0995 9.52793 37.1874 9.65817C37.0162 9.71536 36.8602 9.576 36.6942 9.6295C36.5664 9.6707 36.4451 9.86521 36.3436 9.889C36.3305 9.89207 36.3168 9.88663 36.3033 9.88543L36.2852 9.8289Z" fill="#FEFEFE"/>
<path d="M37.3359 10.0933C37.4773 9.96861 37.6311 9.84276 37.8322 9.85622C37.9277 9.86259 38.0415 9.91362 38.1001 9.99135C38.1312 10.0325 38.1561 10.0796 38.1808 10.1248C37.9047 10.1319 37.6142 10.0991 37.3359 10.0933Z" fill="#FEFEFE"/>
<path d="M37.6855 25.6572C37.8114 25.5955 37.9166 25.4567 38.0362 25.4126C37.932 25.5211 37.8126 25.6269 37.7238 25.7476C37.523 26.0207 36.9921 26.2744 36.6618 26.317C36.5193 26.3354 36.2401 26.2962 36.1172 26.2231C36.18 26.2052 36.1492 26.2064 36.2093 26.2166L36.2842 26.1465C36.5057 26.0422 37.4114 25.6234 37.5918 25.5951C37.6239 25.6148 37.657 25.6326 37.6855 25.6572Z" fill="#FBECB5"/>
<path d="M36.2859 26.1464C36.5073 26.0421 37.4131 25.6233 37.5935 25.595C37.6255 25.6147 37.6587 25.6325 37.6872 25.6571C37.3098 25.9274 36.6848 26.2479 36.2109 26.2165L36.2859 26.1464Z" fill="#6F5926"/>
<path d="M36.2852 26.1464C36.5066 26.0421 37.4124 25.6233 37.5928 25.595C37.2535 25.8456 36.704 26.1145 36.2852 26.1464Z" fill="#FBECB5"/>
<path d="M25.8906 26.3083C26.0116 26.3925 26.1307 26.4776 26.2477 26.5672L26.3078 26.765L26.2105 26.8279C26.0933 26.6601 25.9917 26.4862 25.8906 26.3083Z" fill="#F8F9CD"/>
<path d="M51.9529 39.9395C52.4353 39.8621 53.0064 39.9422 53.4726 40.0752C54.6339 40.4064 55.5727 41.245 56.1484 42.2932C56.7882 43.4541 56.9446 44.8205 56.5837 46.0959C55.9981 48.0935 54.3596 49.1276 52.3598 49.3678C51.4295 49.4795 50.4623 49.4037 49.5332 49.3138C47.6912 49.1356 45.878 48.7943 44.0526 48.5043C42.0831 48.2003 40.1168 47.875 38.1543 47.5288C30.457 46.1973 21.5949 44.6741 13.9482 46.8719C12.2259 47.3669 10.6058 48.1141 9.03373 48.9652C10.2139 47.9671 11.6264 47.2204 13.0728 46.6923C11.4647 46.6663 9.51569 46.6063 8.27267 45.4455C7.67298 44.8855 7.26851 44.1154 7.2471 43.2876C7.22983 42.6201 7.43447 41.9675 7.90216 41.4796C8.2962 41.0686 8.82866 40.8195 9.40061 40.8115C9.90922 40.8045 10.385 40.9849 10.7489 41.3421C11.0854 41.6723 11.3137 42.131 11.3122 42.6078C11.311 43.038 11.1488 43.5078 10.838 43.8099C10.5885 44.0524 10.267 44.1848 9.91785 44.166C9.62259 44.1501 9.32843 44.0315 9.13277 43.8047C8.97533 43.623 8.89958 43.3845 8.92334 43.1453C8.94409 42.9212 9.0467 42.6743 9.23012 42.536C9.40347 42.4053 9.62924 42.3668 9.84056 42.4008C9.99948 42.4264 10.056 42.4904 10.1458 42.6162C10.0474 42.5335 9.94658 42.4639 9.8154 42.4495C9.64473 42.4307 9.4695 42.5099 9.33935 42.6161C9.20732 42.7237 9.12913 42.878 9.11532 43.0473C9.09865 43.2515 9.1781 43.4575 9.31305 43.6093C9.47197 43.7902 9.69966 43.8959 9.94043 43.9006C10.2312 43.9064 10.498 43.7653 10.6958 43.5584C10.9449 43.2978 11.0403 42.9507 11.0235 42.5967C11.0047 42.1817 10.8191 41.7917 10.5087 41.5155C10.1462 41.1949 9.69395 41.0898 9.22267 41.1195C8.81458 41.1718 8.44114 41.3391 8.14615 41.6284C7.73354 42.0372 7.50236 42.5946 7.50449 43.1754C7.50785 43.9874 7.89596 44.7068 8.46499 45.267C8.70527 45.503 8.97724 45.7044 9.27307 45.8654C9.52256 46.0031 9.78815 46.1093 10.0638 46.1817C11.2589 46.4927 13.8505 46.3351 15.0996 46.1406C15.7339 46.0419 16.3597 45.8787 16.9956 45.7758C17.9176 45.6265 18.8559 45.5024 19.7863 45.4214C22.0508 45.2242 24.3637 45.2542 26.6327 45.3511C29.2161 45.4615 31.7987 45.7825 34.3566 46.1505C36.5881 46.4693 38.8122 46.8384 41.0272 47.2574C43.2079 47.6816 45.3779 48.1646 47.57 48.5279C48.8455 48.7392 50.1561 48.9515 51.4529 48.9373C52.8155 48.9223 54.1956 48.5381 55.1667 47.5441C55.9073 46.786 56.328 45.683 56.3148 44.6266C56.2998 43.422 55.7876 42.3075 54.9215 41.4768C54.1772 40.7629 53.2061 40.3679 52.1729 40.3922C51.3275 40.4121 50.5286 40.738 49.9466 41.3589C49.3899 41.9528 49.0531 42.788 49.0862 43.6049C49.1142 44.2976 49.3862 44.9788 49.9022 45.4521C50.36 45.8783 50.97 46.1022 51.5948 46.0735C52.1735 46.0443 52.7578 45.7944 53.1409 45.3517C53.4622 44.9804 53.6587 44.425 53.6072 43.9331C53.5689 43.5659 53.4089 43.2578 53.1225 43.0244L53.0934 43.001L53.0945 42.9765C53.1258 42.9885 53.1533 42.9993 53.1809 43.0188C53.4519 43.2091 53.6215 43.5745 53.6758 43.8951C53.7643 44.4175 53.6144 44.9666 53.3054 45.392C52.9453 45.8878 52.3547 46.2459 51.7476 46.3329C51.0637 46.4308 50.3311 46.2159 49.7838 45.8016C49.1519 45.322 48.7372 44.6103 48.6316 43.8241C48.5242 42.9636 48.763 42.0956 49.2953 41.411C49.9669 40.5424 50.875 40.074 51.9529 39.9395Z" fill="#7A021F"/>
<path d="M47.2486 40.0683C47.2768 40.0682 47.305 40.0676 47.3332 40.0694C47.4744 40.0784 47.6058 40.1534 47.6941 40.2628C47.8574 40.4655 47.904 40.7893 47.8797 41.041C47.8069 41.7966 47.194 42.4782 46.6326 42.935C46.2449 42.7094 45.9562 42.4417 45.6856 42.0852C45.597 41.9776 45.5191 41.8461 45.4521 41.7242C45.2581 41.371 45.1169 40.9315 45.2436 40.5324C45.2927 40.3778 45.3887 40.2202 45.5409 40.1495C45.6512 40.0983 45.7693 40.1061 45.8788 40.1548C46.2362 40.3136 46.4008 40.7243 46.5252 41.0653C46.5406 41.0122 46.5575 40.9594 46.576 40.9072C46.706 40.5433 46.8876 40.2382 47.2486 40.0683Z" fill="#FFAEC1"/>
<path d="M16.7594 39.8752C16.7852 39.8813 16.8112 39.8869 16.8366 39.8949C16.9684 39.9358 17.0651 40.0645 17.1253 40.1827C17.2979 40.5211 17.2218 41.0679 17.1017 41.4163C16.9066 41.9793 16.4957 42.4418 15.9597 42.702C15.5827 42.5259 15.2943 42.2201 15.0337 41.9039C14.7733 41.5419 14.6448 41.1166 14.7002 40.6705C14.728 40.4459 14.8094 40.1039 15.0015 39.9686C15.0724 39.9187 15.159 39.9053 15.2425 39.9257C15.6008 40.013 15.8248 40.4912 16.0022 40.782C16.1653 40.4306 16.3823 40.0265 16.7594 39.8752Z" fill="#FFAEC1"/>
<path d="M52.543 42.7935C52.6737 42.7973 52.8001 42.8042 52.9105 42.882L52.8814 42.9003L52.7768 42.8758C52.6606 42.8304 52.5042 42.8575 52.3789 42.8549C52.4263 42.8128 52.4825 42.8081 52.543 42.7935Z" fill="#F7E4EF"/>
<path d="M21.2088 30.4585C21.4702 30.436 21.7092 30.4447 21.9441 30.5803C22.1956 30.7255 22.3184 30.9435 22.393 31.2141C22.1446 31.5834 21.8803 31.9423 21.6489 32.3227C21.0711 33.2734 19.7805 35.6671 19.9796 36.7468C20.0364 37.0551 20.1887 37.1417 20.4347 37.3062C20.3109 37.3985 20.2052 37.4796 20.0513 37.5146C19.8075 37.5701 19.5354 37.5334 19.3245 37.3951C18.3296 36.7426 19.2711 34.3636 19.6605 33.5137C19.8254 33.163 20.0037 32.8186 20.195 32.4814C20.3163 32.2669 20.4709 32.0424 20.5611 31.8142C20.5871 31.7485 20.5936 31.7273 20.5794 31.6595C20.549 31.6496 20.5479 31.6473 20.5105 31.6465C20.218 31.6405 19.7451 32.0896 19.5436 32.275C18.8854 32.8809 16.5608 35.5624 16.5603 36.3773C16.5601 36.7899 16.9249 36.8745 17.1474 37.1275C17.1906 37.1766 17.1873 37.191 17.1852 37.2525C17.1172 37.3268 17.0529 37.378 16.9591 37.4178C16.6954 37.5296 16.3624 37.5005 16.1058 37.3835C15.8162 37.2513 15.6056 36.9787 15.5001 36.6828C15.0471 35.4136 16.3344 33.3421 16.8645 32.192C16.4122 32.4292 16.0421 32.762 15.6654 33.1014C15.0566 33.6832 14.5227 34.3337 14.0128 35.002C13.7923 35.291 12.8252 36.5117 12.8151 36.8383C12.8085 37.0515 13.0046 37.1954 13.0135 37.3802C13.0155 37.4224 12.9889 37.4329 12.9616 37.4603C12.7749 37.5166 12.5064 37.506 12.3225 37.448C12.1252 37.3857 11.9725 37.2515 11.8867 37.0632C11.5338 36.2887 12.1911 34.5086 12.4805 33.7325C12.7486 33.0134 13.7233 30.9153 14.3836 30.636C14.5344 30.5722 14.7003 30.6129 14.846 30.6729C14.9747 30.7259 15.1128 30.8108 15.1632 30.9477C15.1904 31.0214 15.1526 31.0877 15.1214 31.1537C14.8859 31.6511 14.5816 32.1273 14.3205 32.6132C13.9778 33.2628 13.6582 33.9244 13.3624 34.5967C14.1494 33.5655 15.8529 31.4683 16.9802 30.9095C17.2125 30.7944 17.4775 30.7198 17.7304 30.8135C17.9288 30.8871 18.0967 31.0569 18.178 31.2511C18.3949 31.7695 18.0922 32.4971 17.8949 32.9823C18.8648 32.1246 19.8741 30.7763 21.2088 30.4585Z" fill="#E7426A"/>
<path d="M38.2306 31.5251C38.3814 31.5271 38.52 31.5424 38.6578 31.6095C38.8693 31.7126 38.956 31.888 39.0245 32.1004C38.9348 32.4442 38.7928 32.7579 38.6435 33.0787C38.8206 33.0723 39.0005 33.0634 39.173 33.0201C39.4442 32.9523 39.7848 32.7702 40.0624 32.7856C40.1841 32.7923 40.3036 32.8607 40.383 32.9507C40.5357 33.1241 40.5951 33.3602 40.5666 33.5866C40.5326 33.8575 40.3921 34.1174 40.2819 34.3641C40.0399 34.9059 39.7352 35.5675 39.7213 36.1669C39.7177 36.3272 39.7457 36.495 39.8637 36.6128C39.92 36.669 39.9935 36.7142 40.0761 36.7027C40.4168 36.6551 41.0389 35.8912 41.1555 35.5741C41.2238 35.388 41.2189 35.1692 41.2395 34.9737C41.2889 34.5043 41.486 34.0715 41.7479 33.6839C42.1513 33.0867 42.6567 32.6467 43.3734 32.5018C43.8435 32.4068 44.2811 32.4559 44.6968 32.7028C44.776 32.7499 44.8318 32.7862 44.853 32.8776C44.7974 32.9421 44.6896 32.9475 44.6096 32.9638C44.2015 33.047 43.8039 33.2977 43.4906 33.5658C42.9397 34.0373 42.4677 34.79 42.4266 35.5306C42.4103 35.8233 42.4796 36.1747 42.6918 36.3907C42.8044 36.5053 42.9526 36.5674 43.1137 36.5612C43.4357 36.5489 43.7591 36.2941 43.9734 36.0677C44.3388 35.6815 44.6194 35.1143 44.615 34.5736C44.6133 34.3627 44.5648 34.151 44.5656 33.9403C44.566 33.8465 44.597 33.7575 44.6708 33.6966C44.7488 33.6321 44.8615 33.6161 44.9587 33.6341C45.0971 33.6597 45.2189 33.7337 45.2924 33.8554C45.5494 34.2806 45.2427 35.1771 45.1246 35.6189C45.257 35.559 45.3734 35.4831 45.4851 35.3904C46.0769 34.8993 47.1287 33.1135 47.1958 32.3449C47.3761 32.3372 47.5734 32.328 47.749 32.3748C47.9656 32.4324 48.0676 32.5477 48.1765 32.7356C48.2252 33.4271 47.7053 34.1628 47.3882 34.7552L48.4 33.6305C48.6244 33.3801 48.8451 33.1047 49.0944 32.8798C49.2621 32.7286 49.4489 32.5926 49.6581 32.5049C49.8525 32.4234 50.0802 32.3779 50.2801 32.467C50.5847 32.6026 50.8144 33.0972 50.7419 33.4199C50.5741 34.1676 49.517 35.8097 49.8122 36.5139C49.8507 36.6059 49.9208 36.6844 50.0188 36.7133C50.4422 36.8383 51.1218 35.9803 51.3187 35.6858C51.4988 35.4161 51.9699 34.3758 52.2072 34.2717L52.2354 34.3074C52.2366 34.3986 52.2284 34.4796 52.2072 34.5686C51.9932 35.466 51.4096 36.5482 50.5983 37.0373C50.2545 37.2447 49.8908 37.304 49.5003 37.202C49.1745 37.117 48.8909 36.9315 48.7255 36.6326C48.2349 35.7459 49.0204 34.6183 49.4451 33.8585C49.5565 33.6593 49.6959 33.4406 49.7568 33.2197C49.774 33.1576 49.7824 33.1477 49.7495 33.0898C49.7183 33.0888 49.7155 33.0868 49.6804 33.0966C49.5735 33.1264 49.4341 33.2474 49.3439 33.3146C48.4754 33.9618 47.4121 35.1318 46.8395 36.0453C46.5695 36.476 46.5362 36.8325 46.6507 37.3195C46.4677 37.3237 46.2981 37.3149 46.1243 37.2515C45.8953 37.1678 45.703 37.0057 45.6021 36.7812C45.4297 36.3975 45.554 35.9896 45.6926 35.6197C45.4462 35.7824 45.2219 35.8657 44.9339 35.927C44.629 36.3723 44.2447 36.7702 43.7595 37.0181C43.3073 37.2492 42.819 37.3331 42.3304 37.1683C41.7989 36.989 41.4992 36.6145 41.2606 36.1266C40.9991 36.5317 40.667 36.9382 40.2258 37.157C39.9317 37.3029 39.5886 37.3025 39.2812 37.1966C38.9608 37.0861 38.7194 36.8428 38.5717 36.5423C38.0632 35.508 39.0368 34.5684 39.3353 33.6428L39.3495 33.5981C39.0328 33.5519 38.711 33.5428 38.3932 33.4947C37.99 34.3025 37.6304 35.146 37.1615 35.9183C36.8388 36.4497 36.3066 37.1003 35.668 37.2437C35.3416 37.317 34.9538 37.2566 34.6769 37.0649C34.3305 36.8251 34.1911 36.4319 34.1267 36.0353L34.1097 35.9988C34.0187 36.0513 33.9537 36.1834 33.8915 36.2688C33.6429 36.6103 33.3113 36.9918 32.9053 37.1438C32.6285 37.2481 32.3214 37.2368 32.0529 37.1125C31.6635 36.9292 31.4615 36.5631 31.3229 36.1775C30.905 36.548 30.4586 36.9475 29.9287 37.1467C29.3947 37.3475 28.7242 37.3613 28.2008 37.1192C27.7469 36.9091 27.489 36.5499 27.3222 36.0932C27.0754 36.5553 26.6375 37.0307 26.1266 37.1955C25.7868 37.3051 25.3791 37.2767 25.0634 37.1064C24.6594 36.8886 24.5049 36.5043 24.3807 36.0901C24.0915 36.4441 23.7881 36.8334 23.3813 37.059C23.0986 37.2158 22.785 37.2696 22.472 37.1781C22.2122 37.1022 21.9899 36.9519 21.8615 36.7085C21.6715 36.3485 21.7199 35.8895 21.8399 35.5147C22.2086 34.3641 23.2285 33.168 24.3034 32.6184C24.7164 32.4072 25.2953 32.2431 25.7509 32.403C26.123 32.5337 26.3491 32.8493 26.5168 33.1871C25.8253 33.0366 25.5748 33.0899 24.9698 33.4711C24.1576 33.9826 23.0281 35.2671 22.8296 36.2292C22.7994 36.3758 22.7891 36.4955 22.8707 36.6246C22.9265 36.6669 22.9649 36.6915 23.0387 36.6944C23.9445 36.7304 24.8228 34.4659 25.4306 33.9788C25.5474 33.8853 25.6688 33.8625 25.8152 33.881C25.9926 33.9034 26.1972 34.0454 26.3001 34.189C26.334 34.2363 26.3562 34.2902 26.3461 34.3482C26.3197 34.5009 26.213 34.6786 26.1496 34.82C25.9825 35.1928 25.8308 35.5707 25.7803 35.9793C25.7581 36.1591 25.7126 36.4709 25.8494 36.6129C25.9033 36.6688 25.9755 36.6882 26.0507 36.6897C26.4995 36.6983 27.0263 35.9208 27.1653 35.5437C27.251 35.3115 27.2565 35.0544 27.3016 34.8122C27.419 34.1811 27.7542 33.5522 28.2208 33.1112C28.6675 32.689 29.3133 32.3345 29.9448 32.367C30.2798 32.3842 30.6472 32.5214 30.874 32.7762C31.1183 33.0506 31.1161 33.3638 31.0917 33.7074C31.0866 33.7167 31.0817 33.7261 31.0763 33.7352C30.9138 34.0082 30.6597 34.1839 30.3518 34.2607C30.1927 34.3004 29.9328 34.3187 29.7951 34.2055C29.7336 34.155 29.7307 34.1387 29.7237 34.0651C29.8363 33.8605 30.1442 33.8791 30.3145 33.7234C30.4178 33.6289 30.5425 33.4575 30.5311 33.3089C30.5263 33.2463 30.4936 33.1968 30.4382 33.1672C30.3034 33.095 30.0665 33.1725 29.9388 33.227C29.3341 33.4852 28.8333 34.144 28.5983 34.7414C28.4249 35.1823 28.3311 35.7541 28.5379 36.2002C28.6324 36.4041 28.7949 36.5531 29.0063 36.6292C29.7893 36.9114 30.7794 36.1951 31.2346 35.6114C31.4321 35.3581 31.5004 35.0747 31.652 34.7996C32.1308 33.9306 32.9104 33.0513 33.8097 32.6096C34.2662 32.3853 34.906 32.2137 35.4018 32.3971C35.7864 32.5393 36.0024 32.8707 36.1649 33.2251C35.874 33.1252 35.6043 33.0842 35.2983 33.1455C34.3657 33.3323 33.5462 34.1829 33.0369 34.9401C32.7906 35.3063 32.3554 35.9927 32.4652 36.46C32.4843 36.5407 32.53 36.6157 32.6064 36.6538C33.4112 37.0558 34.587 34.003 35.3164 33.8607C35.4581 33.8331 35.594 33.8748 35.7091 33.9587C35.8383 34.0529 35.9669 34.188 35.9818 34.3549C36.0169 34.7502 35.3065 35.553 35.4397 36.3552C35.4594 36.4738 35.518 36.6344 35.6271 36.7004C35.7015 36.7454 35.7769 36.7551 35.8604 36.729C36.5641 36.5082 37.6035 34.0915 37.952 33.3705C37.8958 33.3152 37.8345 33.2587 37.7855 33.1968C37.6654 33.045 37.6459 32.8092 37.6686 32.6237C37.7166 32.2316 37.9228 31.7755 38.2306 31.5251Z" fill="#E7426A"/>
<path d="M21.6372 42.2815C21.5562 42.2815 21.4931 42.2605 21.448 42.2184C21.406 42.1734 21.385 42.1103 21.385 42.0292V39.3581C21.385 39.2771 21.406 39.2155 21.448 39.1735C21.4931 39.1284 21.5562 39.1059 21.6372 39.1059H22.5066C23.0291 39.1059 23.4315 39.2425 23.7138 39.5158C23.999 39.7861 24.1417 40.1779 24.1417 40.6914C24.1417 40.9467 24.1056 41.1734 24.0336 41.3716C23.9615 41.5698 23.8549 41.7365 23.7138 41.8716C23.5756 42.0037 23.406 42.1058 23.2048 42.1779C23.0036 42.247 22.7708 42.2815 22.5066 42.2815H21.6372ZM21.8534 41.8896H22.4796C22.6777 41.8896 22.8489 41.8656 22.9931 41.8175C23.1402 41.7665 23.2633 41.6914 23.3624 41.5923C23.4615 41.4932 23.5351 41.3686 23.5831 41.2185C23.6312 41.0683 23.6552 40.8926 23.6552 40.6914C23.6552 40.2921 23.5561 39.9933 23.3579 39.7951C23.1627 39.5969 22.8699 39.4978 22.4796 39.4978H21.8534V41.8896ZM25.0199 42.2815C24.9388 42.2815 24.8758 42.2605 24.8307 42.2184C24.7887 42.1734 24.7677 42.1103 24.7677 42.0292V39.3581C24.7677 39.2771 24.7887 39.2155 24.8307 39.1735C24.8758 39.1284 24.9388 39.1059 25.0199 39.1059H26.664C26.7271 39.1059 26.7751 39.1224 26.8082 39.1554C26.8412 39.1855 26.8577 39.2305 26.8577 39.2906C26.8577 39.3536 26.8412 39.4017 26.8082 39.4347C26.7751 39.4677 26.7271 39.4843 26.664 39.4843H25.2181V40.4797H26.5649C26.631 40.4797 26.679 40.4963 26.7091 40.5293C26.7421 40.5623 26.7586 40.6089 26.7586 40.6689C26.7586 40.732 26.7421 40.78 26.7091 40.8131C26.679 40.8431 26.631 40.8581 26.5649 40.8581H25.2181V41.9031H26.664C26.7271 41.9031 26.7751 41.9196 26.8082 41.9527C26.8412 41.9857 26.8577 42.0323 26.8577 42.0923C26.8577 42.1554 26.8412 42.2034 26.8082 42.2365C26.7751 42.2665 26.7271 42.2815 26.664 42.2815H25.0199ZM27.6589 42.2815C27.5838 42.2815 27.5253 42.2605 27.4832 42.2184C27.4412 42.1764 27.4202 42.1178 27.4202 42.0428V39.3266C27.4202 39.2485 27.4397 39.19 27.4787 39.1509C27.5208 39.1089 27.5793 39.0879 27.6544 39.0879C27.7295 39.0879 27.7865 39.1089 27.8256 39.1509C27.8676 39.19 27.8886 39.2485 27.8886 39.3266V41.8806H29.285C29.3511 41.8806 29.4021 41.8986 29.4381 41.9347C29.4742 41.9677 29.4922 42.0157 29.4922 42.0788C29.4922 42.1419 29.4742 42.1914 29.4381 42.2274C29.4021 42.2635 29.3511 42.2815 29.285 42.2815H27.6589ZM30.1397 42.313C30.0647 42.313 30.0061 42.292 29.9641 42.25C29.925 42.2079 29.9055 42.1494 29.9055 42.0743V39.3131C29.9055 39.235 29.925 39.1765 29.9641 39.1374C30.0061 39.0954 30.0647 39.0744 30.1397 39.0744C30.2148 39.0744 30.2719 39.0954 30.3109 39.1374C30.3529 39.1765 30.374 39.235 30.374 39.3131V42.0743C30.374 42.1494 30.3544 42.2079 30.3154 42.25C30.2764 42.292 30.2178 42.313 30.1397 42.313ZM32.5972 42.322C32.2519 42.322 31.9606 42.2575 31.7234 42.1283C31.4861 41.9962 31.306 41.8085 31.1829 41.5653C31.0627 41.3221 31.0027 41.0323 31.0027 40.6959C31.0027 40.4437 31.0372 40.2185 31.1063 40.0203C31.1783 39.8191 31.2804 39.6479 31.4126 39.5068C31.5477 39.3626 31.7114 39.253 31.9036 39.178C32.0987 39.1029 32.3195 39.0654 32.5657 39.0654C32.7459 39.0654 32.9231 39.0894 33.0972 39.1374C33.2714 39.1825 33.4305 39.2575 33.5747 39.3626C33.6167 39.3927 33.6438 39.4272 33.6558 39.4662C33.6678 39.5053 33.6678 39.5458 33.6558 39.5879C33.6468 39.6269 33.6272 39.6614 33.5972 39.6915C33.5702 39.7215 33.5356 39.7395 33.4936 39.7455C33.4546 39.7515 33.411 39.7395 33.363 39.7095C33.2459 39.6284 33.1227 39.5698 32.9936 39.5338C32.8645 39.4948 32.7219 39.4753 32.5657 39.4753C32.3315 39.4753 32.1333 39.5233 31.9711 39.6194C31.812 39.7155 31.6918 39.8551 31.6108 40.0383C31.5297 40.2185 31.4892 40.4377 31.4892 40.6959C31.4892 41.0953 31.5837 41.3986 31.7729 41.6058C31.9621 41.813 32.2429 41.9166 32.6153 41.9166C32.7504 41.9166 32.8825 41.9046 33.0116 41.8806C33.1438 41.8536 33.2699 41.816 33.39 41.768L33.2954 42.0022V40.9527H32.7143C32.6543 40.9527 32.6062 40.9377 32.5702 40.9077C32.5372 40.8746 32.5207 40.8296 32.5207 40.7725C32.5207 40.7155 32.5372 40.6734 32.5702 40.6464C32.6062 40.6164 32.6543 40.6014 32.7143 40.6014H33.4936C33.5567 40.6014 33.6047 40.6179 33.6377 40.6509C33.6708 40.6839 33.6873 40.732 33.6873 40.795V41.9302C33.6873 41.9842 33.6768 42.0307 33.6558 42.0698C33.6377 42.1058 33.6062 42.1328 33.5612 42.1509C33.432 42.2019 33.2804 42.244 33.1062 42.277C32.9321 42.307 32.7624 42.322 32.5972 42.322ZM34.6397 42.313C34.5647 42.313 34.5061 42.292 34.4641 42.25C34.425 42.2079 34.4055 42.1494 34.4055 42.0743V39.3131C34.4055 39.235 34.425 39.1765 34.4641 39.1374C34.5061 39.0954 34.5647 39.0744 34.6397 39.0744C34.7148 39.0744 34.7719 39.0954 34.8109 39.1374C34.8529 39.1765 34.874 39.235 34.874 39.3131V40.4752H36.6532V39.3131C36.6532 39.235 36.6727 39.1765 36.7118 39.1374C36.7538 39.0954 36.8123 39.0744 36.8874 39.0744C36.9625 39.0744 37.0196 39.0954 37.0586 39.1374C37.0976 39.1765 37.1171 39.235 37.1171 39.3131V42.0743C37.1171 42.1494 37.0976 42.2079 37.0586 42.25C37.0196 42.292 36.9625 42.313 36.8874 42.313C36.8123 42.313 36.7538 42.292 36.7118 42.25C36.6727 42.2079 36.6532 42.1494 36.6532 42.0743V40.8671H34.874V42.0743C34.874 42.1494 34.8544 42.2079 34.8154 42.25C34.7764 42.292 34.7178 42.313 34.6397 42.313ZM38.8676 42.313C38.7925 42.313 38.7339 42.292 38.6919 42.25C38.6529 42.2079 38.6333 42.1494 38.6333 42.0743V39.4978H37.6784C37.6153 39.4978 37.5658 39.4813 37.5298 39.4482C37.4937 39.4122 37.4757 39.3626 37.4757 39.2996C37.4757 39.2365 37.4937 39.1885 37.5298 39.1554C37.5658 39.1224 37.6153 39.1059 37.6784 39.1059H40.0522C40.1183 39.1059 40.1693 39.1224 40.2054 39.1554C40.2414 39.1885 40.2594 39.2365 40.2594 39.2996C40.2594 39.3626 40.2414 39.4122 40.2054 39.4482C40.1693 39.4813 40.1183 39.4978 40.0522 39.4978H39.0973V42.0743C39.0973 42.1494 39.0778 42.2079 39.0387 42.25C39.0027 42.292 38.9456 42.313 38.8676 42.313ZM41.5608 42.322C41.4227 42.322 41.2875 42.3115 41.1554 42.2905C41.0233 42.2695 40.8987 42.238 40.7815 42.1959C40.6644 42.1509 40.5593 42.0968 40.4662 42.0338C40.4212 42.0007 40.3897 41.9632 40.3716 41.9211C40.3566 41.8791 40.3521 41.8386 40.3581 41.7995C40.3671 41.7575 40.3852 41.7214 40.4122 41.6914C40.4392 41.6614 40.4722 41.6434 40.5113 41.6374C40.5503 41.6284 40.5939 41.6404 40.6419 41.6734C40.777 41.7605 40.9197 41.825 41.0698 41.8671C41.22 41.9061 41.3836 41.9256 41.5608 41.9256C41.816 41.9256 42.0037 41.8806 42.1239 41.7905C42.247 41.6974 42.3085 41.5773 42.3085 41.4302C42.3085 41.31 42.265 41.2155 42.1779 41.1464C42.0908 41.0743 41.9452 41.0173 41.741 40.9752L41.259 40.8761C40.9737 40.8161 40.7605 40.717 40.6194 40.5788C40.4812 40.4407 40.4122 40.2545 40.4122 40.0203C40.4122 39.8792 40.4407 39.75 40.4978 39.6329C40.5578 39.5158 40.6404 39.4152 40.7455 39.3311C40.8506 39.244 40.9767 39.178 41.1239 39.1329C41.271 39.0879 41.4317 39.0654 41.6058 39.0654C41.792 39.0654 41.9662 39.0894 42.1284 39.1374C42.2935 39.1855 42.4407 39.259 42.5698 39.3581C42.6088 39.3852 42.6343 39.4197 42.6464 39.4617C42.6614 39.5008 42.6644 39.5398 42.6554 39.5789C42.6494 39.6179 42.6328 39.6509 42.6058 39.678C42.5788 39.705 42.5443 39.7215 42.5022 39.7275C42.4602 39.7305 42.4136 39.7155 42.3626 39.6825C42.2455 39.6044 42.1254 39.5488 42.0022 39.5158C41.8821 39.4798 41.7485 39.4617 41.6013 39.4617C41.4542 39.4617 41.3251 39.4843 41.214 39.5293C41.1059 39.5744 41.0218 39.6374 40.9617 39.7185C40.9047 39.7996 40.8761 39.8957 40.8761 40.0068C40.8761 40.1329 40.9167 40.2335 40.9978 40.3086C41.0788 40.3836 41.214 40.4407 41.4031 40.4797L41.8806 40.5788C42.1809 40.6419 42.4046 40.7395 42.5518 40.8716C42.6989 41.0037 42.7725 41.1794 42.7725 41.3986C42.7725 41.5398 42.744 41.6674 42.6869 41.7815C42.6298 41.8926 42.5488 41.9887 42.4437 42.0698C42.3386 42.1509 42.2109 42.2139 42.0608 42.259C41.9136 42.301 41.747 42.322 41.5608 42.322Z" fill="#E7426A"/>
</svg>
