<svg xmlns="http://www.w3.org/2000/svg" width="160" height="160" viewBox="0 0 160 160" fill="none">
<path d="M0 80C0 35.8172 35.8172 0 80 0V0C124.183 0 160 35.8172 160 80V80C160 124.183 124.183 160 80 160V160C35.8172 160 0 124.183 0 80V80Z" fill="#131313"/>
<path fill-rule="evenodd" clip-rule="evenodd" d="M32.5 53.7737V106.25L48.2667 106.155V84.8685C50.1417 84.8685 51.904 84.9437 53.5122 86.0667C54.7365 87.1962 55.7095 88.5837 56.365 90.135L64.8005 106.155H82.5C78.9893 99.1687 76.1765 90.3317 70.138 85.026C68.8638 84.1872 67.4797 83.5395 66.0275 83.1025C67.9682 82.6947 69.8393 81.9932 71.5798 81.021C75.9638 78.3437 78.4787 73.452 78.359 68.3435C78.4495 65.332 77.6237 62.3665 75.997 59.8602C72.314 54.2207 64.8342 53.5532 58.6657 53.7737H32.5ZM54.9848 75.029H48.3283V64.2437H55.2607C58.7017 63.8985 62.9535 65.4385 62.7147 69.5102C62.8747 73.9052 58.4118 74.7817 54.9848 75.029Z" fill="#FFB749"/>
<path d="M98.692 87.7225L82.5 88.6665C82.8155 93.4178 85.0053 97.9 88.659 101.272C92.2793 104.581 98.769 106.235 108.129 106.235C115.891 106.456 124.764 104.537 129.552 97.8923C131.482 95.2335 132.508 92.1068 132.5 88.91C132.554 82.962 128.585 78.0743 123.261 75.7868C118.158 73.6915 112.799 72.1685 107.301 71.25C105.277 71.025 103.332 70.3908 101.606 69.3925C99.7597 68.1493 100.195 65.568 101.838 64.399C106.521 61.3018 114.075 63.8863 114.652 69.758L130.711 68.9053C130.426 64.42 127.961 60.1363 124.089 57.3958C119.247 54.7218 113.633 53.4686 107.997 53.8031C103.373 53.6318 98.7592 54.3045 94.4205 55.782C89.0205 57.7813 84.5725 62.66 84.586 68.6313C84.4828 72.3443 86.2895 76.022 89.3875 78.4053C94.1135 81.5595 99.5812 83.6455 105.347 84.495C108.458 84.9093 111.432 85.9488 114.056 87.5398C116.469 89.3273 116.452 92.9175 113.99 94.7258C111.27 96.633 107.259 96.854 104.205 95.617C100.929 94.29 99.012 91.196 98.692 87.7225Z" fill="#FFB749"/>
</svg>