<svg width="24" height="24" viewBox="0 0 24 24" fill="none" xmlns="http://www.w3.org/2000/svg">
<path d="M7.55558 4V11.1111M7.55558 11.1111C6.08282 11.1111 4.88892 12.305 4.88892 13.7778C4.88892 15.2505 6.08282 16.4444 7.55558 16.4444M7.55558 11.1111C9.02834 11.1111 10.2222 12.305 10.2222 13.7778C10.2222 15.2505 9.02834 16.4444 7.55558 16.4444M7.55558 16.4444V20" stroke="#131313" stroke-width="1.5" stroke-linecap="round" stroke-linejoin="round"/>
<path d="M16.4445 20V12.8889M16.4445 12.8889C14.9717 12.8889 13.7778 11.695 13.7778 10.2222C13.7778 8.74946 14.9717 7.55556 16.4445 7.55556M16.4445 12.8889C17.9173 12.8889 19.1112 11.695 19.1112 10.2222C19.1112 8.74946 17.9173 7.55556 16.4445 7.55556M16.4445 7.55556V4" stroke="#131313" stroke-width="1.5" stroke-linecap="round" stroke-linejoin="round"/>
</svg>
