<svg width="18" height="19" viewBox="0 0 18 19" fill="none" xmlns="http://www.w3.org/2000/svg">
<path d="M1.54651 9.81126C1.48401 9.64287 1.48401 9.45764 1.54651 9.28926C2.15529 7.81315 3.18865 6.55104 4.51559 5.66293C5.84253 4.77483 7.4033 4.30072 9.00001 4.30072C10.5967 4.30072 12.1575 4.77483 13.4844 5.66293C14.8114 6.55104 15.8447 7.81315 16.4535 9.28926C16.516 9.45764 16.516 9.64287 16.4535 9.81126C15.8447 11.2874 14.8114 12.5495 13.4844 13.4376C12.1575 14.3257 10.5967 14.7998 9.00001 14.7998C7.4033 14.7998 5.84253 14.3257 4.51559 13.4376C3.18865 12.5495 2.15529 11.2874 1.54651 9.81126Z" stroke="black" stroke-width="1.5" stroke-linecap="round" stroke-linejoin="round"/>
<path d="M9.00001 11.8003C10.2427 11.8003 11.25 10.7929 11.25 9.55026C11.25 8.30762 10.2427 7.30026 9.00001 7.30026C7.75737 7.30026 6.75001 8.30762 6.75001 9.55026C6.75001 10.7929 7.75737 11.8003 9.00001 11.8003Z" stroke="black" stroke-width="1.5" stroke-linecap="round" stroke-linejoin="round"/>
</svg>
